PathFileType	4	(X/Y/Z)	s11c0302.trc
DataRate	CameraRate	NumFrames	NumMarkers	Units	OrigDataRate	OrigDataStartFrame	OrigNumFrames
200	200	4	48	mm	200	1750	2000
Frame#	Time	racr			lacr			c7			jug			rlel			rdr			llel			ldr			s2			lic			ric			lasi			rasi			rpsi			lpsi			rgt			lgt			rth1			rth2			rth3			rth4			rlfc			rmfc			rsh1			rsh2			rsh3			rsh4			rlmal			rcal			rtoe			rmt5			lth1			lth2			lth4			lth3			llfc			lmfc			llmal			lcal			lmt5			lsh1			lsh2			lsh3			lsh4			ltoe			SBIKE			LBIKE			RBIKE			
		X1	Y1	Z1	X2	Y2	Z2	X3	Y3	Z3	X4	Y4	Z4	X5	Y5	Z5	X6	Y6	Z6	X7	Y7	Z7	X8	Y8	Z8	X9	Y9	Z9	X10	Y10	Z10	X11	Y11	Z11	X12	Y12	Z12	X13	Y13	Z13	X14	Y14	Z14	X15	Y15	Z15	X16	Y16	Z16	X17	Y17	Z17	X18	Y18	Z18	X19	Y19	Z19	X20	Y20	Z20	X21	Y21	Z21	X22	Y22	Z22	X23	Y23	Z23	X24	Y24	Z24	X25	Y25	Z25	X26	Y26	Z26	X27	Y27	Z27	X28	Y28	Z28	X29	Y29	Z29	X30	Y30	Z30	X31	Y31	Z31	X32	Y32	Z32	X33	Y33	Z33	X34	Y34	Z34	X35	Y35	Z35	X36	Y36	Z36	X37	Y37	Z37	X38	Y38	Z38	X39	Y39	Z39	X40	Y40	Z40	X41	Y41	Z41	X42	Y42	Z42	X43	Y43	Z43	X44	Y44	Z44	X45	Y45	Z45	X46	Y46	Z46	X47	Y47	Z47	X48	Y48	Z48	
1750	8.7500	800.753329	1379.314782	-114.743892	709.464653	1391.940511	-457.219596	715.598944	1492.766922	-269.821015	724.405174	1311.329255	-284.170610	699.256826	1153.100944	41.414121	798.639518	925.302784	-65.940069	569.500839	1128.004417	-572.360135	792.924028	921.623306	-465.904918	148.169649	1262.548220	-181.175355	340.134198	1283.928859	-406.237964	396.831237	1213.117212	-20.261714	362.876452	1209.057882	-364.659919	407.831163	1156.390670	-63.464791	213.270552	1321.504474	-119.763483	192.026165	1333.673432	-212.173015	285.247660	1071.076475	2.199044	262.330041	1178.981835	-422.987539	322.192525	943.885199	-4.918731	363.821544	867.964166	-28.253461	360.819696	782.402552	-48.187294	396.327659	879.140509	-42.766930	379.430379	680.886782	-73.659059	359.517540	670.876432	-196.565187	284.421435	547.676847	-62.312534	256.570943	466.336222	-83.212771	192.956963	406.988200	-85.648514	279.413142	456.301784	-113.545666	109.325092	303.590355	-103.461290	47.947550	325.379460	-151.880394	270.301078	141.963219	-148.832750	197.829149	158.097503	-78.999931	392.795866	1106.546963	-448.810570	475.106288	1082.359566	-449.793279	494.980805	1110.492910	-435.802526	530.106076	1018.431217	-463.790081	641.266856	935.885128	-452.973467	665.250954	917.900379	-317.354248	351.888494	622.858900	-419.047389	288.704110	635.688574	-385.168588	381.780174	450.520377	-452.510487	567.817435	843.127413	-463.440151	530.805321	766.348690	-450.317801	458.795489	715.517809	-444.894826	556.891184	747.649587	-428.536143	460.189845	391.063340	-387.397957	-214.847524	952.253797	-255.484168	-17.809824	81.130932	-460.798145	-17.738559	80.981445	-61.886140	
1751	8.7550	799.147962	1379.523325	-114.861800	708.601500	1392.287730	-457.368825	714.332712	1493.374341	-270.180244	722.666822	1311.682148	-284.564998	698.183806	1152.982421	40.862137	798.579590	925.315311	-66.050256	569.390744	1128.165898	-572.593060	792.811266	921.651628	-465.937199	146.685950	1263.491696	-181.144151	337.698679	1285.867526	-406.773457	394.703412	1213.903502	-21.946882	360.201195	1210.594589	-365.940449	406.841236	1157.133375	-64.434389	212.032170	1322.389403	-120.013057	190.379393	1334.738425	-212.191788	285.586122	1072.041568	2.070060	259.755049	1180.377996	-423.627690	324.641321	945.166371	-5.265353	366.923661	869.717377	-28.878824	364.635747	783.995945	-48.690124	399.168946	881.391180	-43.989126	383.015353	682.383578	-73.406515	363.050184	672.107691	-196.386724	285.491880	550.636463	-62.111292	255.880249	469.887446	-83.273969	191.361717	411.681488	-85.651197	278.494033	459.784359	-113.594353	104.967046	311.252163	-102.800352	44.595227	334.262862	-151.893925	261.820212	144.990384	-148.705117	189.808766	162.931556	-78.867569	390.215027	1107.450738	-449.373586	472.450790	1083.164769	-449.916465	492.381366	1111.301291	-436.022377	527.421389	1019.057643	-463.588622	640.203184	935.857818	-451.856543	663.423113	919.282279	-316.310746	355.962463	616.985344	-419.639544	292.247296	628.287177	-385.583815	389.777770	445.342025	-452.642695	568.017928	841.611004	-463.242077	532.322110	764.225502	-450.208911	461.156236	712.104027	-445.064361	558.615781	745.937388	-428.335117	469.661000	387.892544	-387.484708	-214.837931	952.285755	-255.506984	-17.763643	81.213999	-460.768184	-17.733858	81.012259	-61.902845	
1752	8.7600	797.550657	1379.758141	-114.841838	707.886670	1392.658596	-457.462310	713.113387	1494.114546	-270.644428	720.914049	1312.048993	-284.884646	697.171725	1152.977696	40.676128	798.501092	925.324853	-66.191234	569.375808	1128.325077	-572.723580	792.675356	921.675806	-466.000175	145.203359	1264.514306	-181.267522	335.244180	1287.893236	-407.307386	393.620257	1214.912244	-22.741500	357.591479	1211.973039	-367.300512	405.717882	1157.941877	-65.371466	210.722295	1323.295317	-120.363417	188.774345	1335.621100	-212.489155	285.913899	1073.053817	1.820640	257.049085	1181.645053	-424.320949	327.149468	946.496134	-5.463766	370.300606	871.392903	-29.435758	368.931080	785.762125	-48.818763	401.584644	883.668143	-44.465435	386.947406	684.097169	-73.170691	367.197369	673.375469	-196.219400	286.889539	553.857951	-61.950705	255.676491	473.804126	-83.316556	190.140218	416.586027	-85.700584	278.009688	463.039099	-113.803561	101.586518	318.798389	-102.851485	41.747393	343.380127	-151.857179	253.581905	148.250760	-148.733733	182.104543	168.400533	-78.969881	387.430399	1108.065626	-449.857002	469.522057	1083.481748	-450.056690	489.525264	1111.744030	-436.285707	524.389308	1019.255966	-463.452870	639.149735	935.237141	-450.425660	660.932757	919.628637	-315.614697	359.660532	610.449327	-420.390639	295.422625	620.234498	-386.074119	397.459826	439.637744	-452.845419	567.716004	839.398749	-462.795531	533.162583	761.468233	-450.438599	462.920793	708.083660	-445.369035	559.695410	743.687139	-428.483068	478.721593	384.234349	-387.433640	-214.827458	952.314908	-255.545343	-17.767935	81.222299	-460.782606	-17.714256	81.051403	-61.907480	
1753	8.7650	795.896594	1380.203637	-114.695118	707.230220	1392.962058	-457.463529	711.934071	1494.822721	-270.860443	719.207049	1312.439473	-284.955855	695.960078	1152.830672	40.336674	798.429975	925.324519	-66.345637	569.394225	1128.502880	-572.770524	792.557694	921.683881	-466.076709	143.684884	1265.589976	-181.401282	332.888634	1289.874981	-408.009444	392.351540	1216.197402	-23.490375	354.959849	1213.344512	-368.861291	404.523060	1158.987936	-66.241076	209.368003	1324.329042	-120.941207	187.349379	1336.370598	-213.176998	286.213966	1074.271809	1.422758	254.301921	1182.697827	-425.027269	330.098068	947.835517	-6.059043	373.779895	873.331602	-29.979183	373.365481	787.648475	-48.868508	405.222316	885.790768	-45.441581	392.036658	685.662058	-73.461664	371.869035	674.685466	-196.121663	288.790524	557.327673	-61.870446	256.043197	477.824159	-83.361781	189.102102	422.379335	-85.292361	278.268708	466.739907	-113.917048	98.721219	326.711841	-102.786304	39.439765	353.117139	-151.772172	245.660117	152.056138	-148.638999	174.794351	174.306323	-78.856539	384.389073	1108.255665	-450.417548	466.327490	1083.336184	-450.267415	486.404876	1111.585904	-436.721253	520.682124	1018.750015	-463.542592	637.493239	933.910584	-448.752589	657.859565	919.107907	-314.908068	362.857687	603.290811	-421.060769	297.971911	611.554002	-386.664520	404.715129	433.420621	-453.062978	566.447659	836.731389	-462.909947	533.336684	758.113500	-450.779800	464.162196	703.420657	-445.672777	560.242775	740.850849	-428.789055	487.296067	380.270350	-387.615233	-214.856144	952.382930	-255.635273	-17.752605	81.292316	-460.800245	-17.769527	81.130477	-62.002474	
